<?xml version="1.0" encoding="utf-8"?><!-- Generator: Adobe Illustrator 19.2.1, SVG Export Plug-In . SVG Version: 6.00 Build 0)  -->
<svg version="1.1" id="Layer_1" xmlns="http://www.w3.org/2000/svg" xmlns:xlink="http://www.w3.org/1999/xlink" x="0px" y="0px"
	 viewBox="0 0 425 237.9" style="enable-background:new 0 0 425 237.9;" xml:space="preserve">
<g>
	<rect x="28.9" class="svg-optimalLayer1" width="396.1" height="114.9"/>

	<rect x="28.9" y="53"
		  transform="matrix(-1 -1.224647e-16 1.224647e-16 -1 75.8242 220.9004)"
		  class="svg-optimalLayer1" width="18" height="114.9" />
	<g>
		<path class="svg-optimalLayer2"
			  d="M37.9,227.9c-15.4,0-27.9-12.5-27.9-27.9S22.5,172,37.9,172s27.9,12.5,27.9,27.9S53.3,227.9,37.9,227.9z"/>
		<path class="svg-optimalLayer1" d="M37.9,182c9.9,0,17.9,8,17.9,17.9s-8,17.9-17.9,17.9s-17.9-8-17.9-17.9S28,182,37.9,182 M37.9,162
			C17,162,0,179,0,199.9s17,37.9,37.9,37.9s37.9-17,37.9-37.9S58.9,162,37.9,162L37.9,162z"/>
	</g>
	<text transform="matrix(1 0 0 1 57.4767 86.4083)"
		  class="svg-optimalLayer2">OPTIMAL</text>
</g>
</svg>
